<?xml version="1.0"?>
<svg xmlns="http://www.w3.org/2000/svg" xmlns:xlink="http://www.w3.org/1999/xlink" xmlns:svgjs="http://svgjs.com/svgjs" version="1.1" width="512" height="512" x="0" y="0" viewBox="0 0 512 512" style="enable-background:new 0 0 512 512" xml:space="preserve" class=""><g>
<g xmlns="http://www.w3.org/2000/svg">
	<g>
		<path d="M431.634,159.667h-15.967v63.867h15.967c8.825,0,15.967,7.141,15.967,15.967v128.798c0,8.825-7.141,15.967-15.967,15.967    h-15.967v63.867h15.967c44.018,0,79.834-35.815,79.834-79.834V239.501C511.468,195.483,475.651,159.667,431.634,159.667z" fill="#ffd900" data-original="#000000" style="" class=""/>
	</g>
</g>
<g xmlns="http://www.w3.org/2000/svg">
	<g>
		<path d="M34.081,448.133C41.5,484.528,73.749,512,112.299,512H303.9c38.55,0,70.8-27.472,78.218-63.867H34.081z" fill="#ffd900" data-original="#000000" style="" class=""/>
	</g>
</g>
<g xmlns="http://www.w3.org/2000/svg">
	<g>
		<path d="M335.834,31.933c-14.314,0-28.129,3.789-40.229,10.868C274.57,16.044,242.403,0,208.1,0    c-34.537,0-66.814,15.967-87.817,42.614c-19.477-11.293-43.374-14.032-66.588-6.292c-24.648,8.22-44.081,29.41-50.503,54.584    c-13.516,52.968,26.356,100.685,77.158,100.695c8.837,0,15.983,7.128,15.983,15.967v47.9c0,17.635,14.297,31.933,31.933,31.933    s31.933-14.299,31.933-31.933v-47.9c0-8.82,7.149-15.967,15.967-15.967h154.944c41.753,0,79.888-29.951,84.13-71.487    C420.115,72.369,382.603,31.933,335.834,31.933z" fill="#ffd900" data-original="#000000" style="" class=""/>
	</g>
</g>
<g xmlns="http://www.w3.org/2000/svg">
	<g>
		<path d="M331.11,223.534H192.133v31.933c0,23.539-12.936,43.909-31.933,54.985v57.846c0,8.825-7.141,15.967-15.967,15.967    s-15.967-7.141-15.967-15.967v-48.965c-35.224,0-63.867-28.643-63.867-63.867v-33.056c-11.246-1.604-21.849-5.342-31.933-10.157    V416.2h351.268V210.793C367.751,218.683,349.968,223.534,331.11,223.534z M224.066,368.299c0,8.825-7.141,15.967-15.967,15.967    c-8.825,0-15.967-7.141-15.967-15.967v-96.865c0-8.825,7.141-15.967,15.967-15.967c8.825,0,15.967,7.141,15.967,15.967V368.299z     M287.933,368.299c0,8.825-7.141,15.967-15.967,15.967S256,377.125,256,368.299v-96.865c0-8.825,7.141-15.967,15.967-15.967    c8.825,0,15.967,7.141,15.967,15.967V368.299z" fill="#ffd900" data-original="#000000" style="" class=""/>
	</g>
</g>
<g xmlns="http://www.w3.org/2000/svg">
</g>
<g xmlns="http://www.w3.org/2000/svg">
</g>
<g xmlns="http://www.w3.org/2000/svg">
</g>
<g xmlns="http://www.w3.org/2000/svg">
</g>
<g xmlns="http://www.w3.org/2000/svg">
</g>
<g xmlns="http://www.w3.org/2000/svg">
</g>
<g xmlns="http://www.w3.org/2000/svg">
</g>
<g xmlns="http://www.w3.org/2000/svg">
</g>
<g xmlns="http://www.w3.org/2000/svg">
</g>
<g xmlns="http://www.w3.org/2000/svg">
</g>
<g xmlns="http://www.w3.org/2000/svg">
</g>
<g xmlns="http://www.w3.org/2000/svg">
</g>
<g xmlns="http://www.w3.org/2000/svg">
</g>
<g xmlns="http://www.w3.org/2000/svg">
</g>
<g xmlns="http://www.w3.org/2000/svg">
</g>
</g></svg>
